<?xml version="1.0" encoding="utf-8"?>
<!-- Generator: Adobe Illustrator 21.1.0, SVG Export Plug-In . SVG Version: 6.00 Build 0)  -->
<svg version="1.1" id="Layer_1" xmlns="http://www.w3.org/2000/svg" xmlns:xlink="http://www.w3.org/1999/xlink" x="0px" y="0px"
	 width="50px" height="50px" viewBox="0 0 50 50" enable-background="new 0 0 50 50" xml:space="preserve">
<g>
	<g>
		<g>
			<path fill="#333333" d="M39.7,20.849c-0.143-0.345-0.2-0.79-0.115-1.147c0.667-2.854,1.378-5.699,2.076-8.546
				c-0.899,0-1.666,0-2.7,0.099c-2.023,0.194-3.895,1.07-5.856,1.604c-0.312,0.084-0.713-0.041-1.049-0.151
				c-5.026-1.649-10.046-1.63-15.069,0.013c-0.333,0.11-0.734,0.235-1.048,0.148c-2.003-0.539-4.318-1.455-6.382-1.636
				c-0.884-0.078-1.372-0.078-2.193-0.078c0.607,2.703,1.371,5.403,1.944,8.112c0.115,0.549,0.194,1.206,0.001,1.702
				c-0.915,2.351-1.93,4.664-2.988,7.183c6.09,1.103,10.76,4.687,15.057,8.909l0.288-0.358c-1.264-1.614-2.528-3.228-3.798-4.848
				c1.448-1.083,2.89-2.152,4.316-3.234c0.76-0.576,0.873-1.274,0.185-1.963c-1.253-1.257-3.271-4.097-4.58-4.097
				c-4.333,0-7.999,3.19-9.329,3.826c1.682-3.929,2.581-7.572,6.336-10.036c-1.82-1.459-3.471-2.782-5.283-4.237
				c0.406,0.064,0.602,0.092,0.799,0.127c2.468,0.444,4.471,1.948,6.7,2.903c2.997,1.284,4.82,3.401,6.142,6.172
				c0.487,1.018,0.905,2.068,1.353,3.108c0.799-1.635,1.5-3.25,2.355-4.778c1.014-1.824,2.416-3.288,4.398-4.119
				c0.67-0.282,1.334-0.616,1.944-1.012c1.912-1.241,3.966-2.053,6.333-2.38c-1.766,1.434-3.438,2.786-5.241,4.249
				c3.815,2.51,4.808,6.359,6.387,9.988c-0.325,0-4.697-3.811-9.612-3.78c-1.03,0-2.717,2.143-3.226,2.724
				c-2.294,2.619-2.111,2.433,0.363,4.379c0.979,0.773,2.054,1.424,3.059,2.114c-1.338,1.701-2.588,3.291-3.836,4.878l0.293,0.368
				c4.31-4.263,9.029-7.822,15.052-8.924C41.693,25.577,40.676,23.222,39.7,20.849z"/>
			<path fill="#333333" d="M21.392,37.294l-0.123-0.121c-3.797-3.731-8.546-7.702-14.975-8.866l-0.192-0.035l0.075-0.179
				c0.295-0.703,0.587-1.39,0.874-2.066c0.747-1.759,1.453-3.42,2.112-5.113c0.144-0.369,0.141-0.897-0.009-1.614
				c-0.315-1.491-0.695-3.006-1.062-4.471c-0.299-1.192-0.608-2.425-0.881-3.639L7.169,11h0.195c0.821,0,1.316,0,2.207,0.078
				c1.465,0.128,3.036,0.617,4.554,1.089c0.648,0.201,1.26,0.392,1.855,0.552c0.281,0.078,0.689-0.057,0.958-0.146
				c5.055-1.653,10.158-1.657,15.167-0.013c0.288,0.094,0.683,0.224,0.96,0.148c0.654-0.178,1.312-0.399,1.948-0.613
				c1.265-0.425,2.573-0.865,3.934-0.995c1.042-0.1,1.817-0.1,2.715-0.1h0.199l-0.517,2.103c-0.535,2.173-1.088,4.42-1.606,6.635
				c-0.073,0.306-0.031,0.718,0.107,1.052l0,0c0.697,1.695,1.409,3.366,2.162,5.136c0.299,0.702,0.602,1.415,0.911,2.144
				l0.076,0.179l-0.192,0.035c-6.515,1.191-11.422,5.372-14.97,8.881l-0.124,0.122l-0.478-0.601l3.809-4.844
				c-0.269-0.183-0.543-0.364-0.819-0.545c-0.705-0.465-1.434-0.946-2.112-1.481c-0.171-0.135-0.332-0.259-0.481-0.376
				c-0.967-0.751-1.499-1.164-1.549-1.693c-0.057-0.591,0.477-1.2,1.647-2.536c0.056-0.064,0.127-0.148,0.21-0.246
				c0.696-0.822,2.145-2.531,3.133-2.531c0.02,0,0.041,0,0.061,0c3.937,0,7.457,2.378,8.965,3.397
				c0.09,0.061,0.179,0.121,0.259,0.174c-0.199-0.471-0.39-0.945-0.577-1.408c-1.251-3.097-2.433-6.022-5.57-8.085l-0.178-0.118
				l2.279-1.847c0.893-0.723,1.775-1.438,2.677-2.17c-2.034,0.357-3.904,1.102-5.7,2.267c-0.568,0.369-1.23,0.714-1.968,1.025
				c-1.816,0.761-3.23,2.086-4.322,4.05c-0.584,1.045-1.088,2.112-1.62,3.241c-0.239,0.507-0.48,1.017-0.73,1.53l-0.149,0.306
				l-0.134-0.312c-0.131-0.305-0.26-0.611-0.389-0.917c-0.304-0.722-0.619-1.47-0.962-2.186c-1.431-3-3.357-4.937-6.062-6.096
				c-0.761-0.326-1.505-0.72-2.224-1.102c-1.393-0.738-2.833-1.501-4.442-1.791c-0.069-0.012-0.138-0.023-0.217-0.036
				c1.209,0.97,2.357,1.891,3.546,2.844l1.448,1.161l-0.18,0.118c-3.085,2.025-4.195,4.803-5.481,8.02
				c-0.2,0.5-0.405,1.013-0.621,1.531c0.228-0.137,0.498-0.313,0.808-0.514c1.789-1.164,4.784-3.113,8.202-3.113
				c1.043,0,2.402,1.561,3.601,2.938c0.396,0.455,0.77,0.884,1.089,1.205c0.358,0.358,0.526,0.73,0.5,1.106
				c-0.027,0.393-0.263,0.76-0.701,1.092c-1.03,0.782-2.068,1.556-3.111,2.334l-1.078,0.805l3.776,4.82L21.392,37.294z M6.54,28.035
				c6.347,1.21,11.051,5.103,14.824,8.795l0.102-0.127l-3.82-4.876l1.335-0.997c1.042-0.777,2.08-1.551,3.109-2.333
				c0.363-0.275,0.557-0.566,0.578-0.865c0.019-0.282-0.118-0.572-0.409-0.863c-0.327-0.328-0.704-0.761-1.104-1.22
				c-1.098-1.261-2.465-2.831-3.366-2.831c-3.325,0-6.271,1.917-8.031,3.062c-0.517,0.336-0.926,0.602-1.23,0.748l-0.374,0.179
				l0.163-0.381c0.28-0.655,0.541-1.308,0.794-1.94c1.227-3.071,2.387-5.974,5.421-8.046l-1.114-0.893
				c-1.338-1.072-2.624-2.103-4.003-3.211l-0.458-0.368l0.949,0.149c0.181,0.028,0.306,0.047,0.432,0.069
				c1.658,0.298,3.12,1.073,4.534,1.823c0.714,0.378,1.452,0.77,2.201,1.09c2.779,1.191,4.756,3.176,6.221,6.248
				c0.346,0.723,0.662,1.473,0.968,2.199c0.084,0.2,0.168,0.4,0.253,0.6c0.197-0.408,0.389-0.814,0.579-1.218
				c0.535-1.134,1.041-2.206,1.63-3.26c1.127-2.028,2.591-3.397,4.474-4.186c0.721-0.304,1.367-0.64,1.919-0.999
				c2.001-1.299,4.094-2.085,6.397-2.404l0.554-0.077l-0.434,0.353c-1.06,0.861-2.086,1.692-3.128,2.536l-1.949,1.579
				c3.088,2.113,4.319,5.161,5.511,8.11c0.243,0.601,0.494,1.223,0.757,1.827l0.095,0.219h-0.238c-0.11,0-0.248-0.09-0.76-0.437
				c-1.492-1.008-4.983-3.365-8.851-3.343c-0.844,0-2.281,1.696-2.895,2.421c-0.084,0.1-0.157,0.185-0.214,0.25
				c-1.041,1.189-1.615,1.844-1.571,2.3c0.038,0.394,0.532,0.778,1.43,1.476c0.15,0.116,0.311,0.241,0.483,0.377
				c0.668,0.527,1.391,1.004,2.09,1.466c0.324,0.214,0.646,0.426,0.961,0.642l0.137,0.094l-3.863,4.912l0.107,0.135
				c3.535-3.48,8.39-7.57,14.818-8.808c-0.283-0.667-0.561-1.321-0.835-1.965c-0.754-1.771-1.466-3.443-2.164-5.14
				c-0.164-0.396-0.21-0.872-0.122-1.243c0.518-2.216,1.071-4.464,1.607-6.638l0.422-1.716c-0.808,0.001-1.537,0.007-2.486,0.098
				c-1.325,0.127-2.616,0.561-3.864,0.981c-0.64,0.215-1.302,0.438-1.966,0.618c-0.339,0.092-0.732-0.02-1.139-0.153
				c-4.945-1.623-9.982-1.618-14.972,0.013c-0.403,0.134-0.794,0.246-1.138,0.151c-0.599-0.161-1.214-0.353-1.865-0.555
				c-1.503-0.467-3.057-0.95-4.489-1.076c-0.805-0.071-1.284-0.077-1.984-0.077c0.261,1.149,0.553,2.313,0.836,3.441
				c0.368,1.468,0.749,2.985,1.065,4.482c0.165,0.789,0.163,1.358-0.006,1.791c-0.66,1.697-1.367,3.361-2.115,5.122
				C7.076,26.767,6.81,27.394,6.54,28.035z"/>
		</g>
		<g>
			<path fill-rule="evenodd" clip-rule="evenodd" fill="#333333" d="M24.574,33.971c0.764,0.225,1.982-0.433,2.062,1.049
				c0.059,1.12-0.969,2.137-2.052,2.149c-1.15,0.012-2.232-1.05-2.122-2.196C22.603,33.521,23.81,34.206,24.574,33.971z"/>
			<path fill="#333333" d="M24.565,37.325c-0.611,0-1.239-0.287-1.684-0.771c-0.419-0.457-0.629-1.039-0.575-1.597
				c0.112-1.163,0.884-1.127,1.506-1.097c0.264,0.012,0.513,0.024,0.716-0.038l0.045-0.014l0.045,0.013
				c0.199,0.058,0.44,0.049,0.696,0.04c0.628-0.024,1.412-0.052,1.477,1.15c0.029,0.556-0.194,1.13-0.611,1.575
				c-0.434,0.463-1.016,0.732-1.595,0.738C24.579,37.325,24.572,37.325,24.565,37.325z M23.48,34.162
				c-0.468,0-0.793,0.111-0.862,0.825c-0.045,0.47,0.135,0.964,0.494,1.356c0.39,0.425,0.953,0.671,1.47,0.67
				c0.495-0.005,0.994-0.238,1.371-0.639c0.36-0.383,0.552-0.873,0.527-1.345c-0.048-0.895-0.511-0.877-1.154-0.854
				c-0.253,0.009-0.515,0.019-0.751-0.041c-0.245,0.064-0.515,0.051-0.778,0.039C23.686,34.167,23.58,34.162,23.48,34.162z"/>
		</g>
	</g>
</g>
<g>
</g>
<g>
</g>
<g>
</g>
<g>
</g>
<g>
</g>
<g>
</g>
<g>
</g>
<g>
</g>
<g>
</g>
<g>
</g>
<g>
</g>
<g>
</g>
<g>
</g>
<g>
</g>
<g>
</g>
</svg>
